<mxfile host="Electron" agent="Mozilla/5.0 (Macintosh; Intel Mac OS X 10_15_7) AppleWebKit/537.36 (KHTML, like Gecko) draw.io/27.0.9 Chrome/134.0.6998.205 Electron/35.4.0 Safari/537.36" version="27.0.9" pages="3">
  <diagram name="Q42 Meta Model" id="cULiAE64kOLHnHZs_wdY">
    <mxGraphModel dx="879" dy="969" grid="1" gridSize="10" guides="1" tooltips="1" connect="1" arrows="1" fold="1" page="1" pageScale="1" pageWidth="1169" pageHeight="827" math="0" shadow="0">
      <root>
        <mxCell id="0" />
        <mxCell id="1" parent="0" />
        <mxCell id="bslqSTpE_m5JZVY4g9k7-14" style="edgeStyle=orthogonalEdgeStyle;rounded=0;orthogonalLoop=1;jettySize=auto;html=1;entryX=0;entryY=0.5;entryDx=0;entryDy=0;endArrow=none;startFill=0;fontFamily=Roboto;shadow=1;" parent="1" source="bslqSTpE_m5JZVY4g9k7-1" target="bslqSTpE_m5JZVY4g9k7-3" edge="1">
          <mxGeometry relative="1" as="geometry" />
        </mxCell>
        <mxCell id="bslqSTpE_m5JZVY4g9k7-16" style="edgeStyle=orthogonalEdgeStyle;rounded=0;orthogonalLoop=1;jettySize=auto;html=1;endArrow=none;startFill=0;shadow=1;" parent="1" source="bslqSTpE_m5JZVY4g9k7-1" target="bslqSTpE_m5JZVY4g9k7-2" edge="1">
          <mxGeometry relative="1" as="geometry" />
        </mxCell>
        <mxCell id="bslqSTpE_m5JZVY4g9k7-1" value="&lt;font style=&quot;font-size: 14px;&quot;&gt;(top-level)&lt;/font&gt;&lt;div&gt;&lt;font style=&quot;font-size: 24px;&quot;&gt;&lt;b&gt;Property&lt;/b&gt;&lt;/font&gt;&lt;/div&gt;&lt;div&gt;&lt;font style=&quot;font-size: 14px;&quot;&gt;tag, label&lt;/font&gt;&lt;/div&gt;" style="rounded=0;whiteSpace=wrap;html=1;fillColor=light-dark(#00B8F5,#EDEDED);fontFamily=Roboto;shadow=1;points=[[0,0,0,0,0],[0,0.5,0,0,0],[0,1,0,0,0],[0.11,0,0,0,0],[0.23,0,0,0,0],[0.25,1,0,0,0],[0.35,0,0,0,0],[0.5,0,0,0,0],[0.5,1,0,0,0],[0.63,0,0,0,0],[0.75,0,0,0,0],[0.75,1,0,0,0],[0.88,0,0,0,0],[1,0,0,0,0],[1,0.5,0,0,0],[1,1,0,0,0]];fontColor=#113040;" parent="1" vertex="1">
          <mxGeometry x="560" y="120" width="160" height="80" as="geometry" />
        </mxCell>
        <mxCell id="bslqSTpE_m5JZVY4g9k7-10" style="rounded=0;orthogonalLoop=1;jettySize=auto;html=1;entryX=0;entryY=0.5;entryDx=0;entryDy=0;endArrow=none;startFill=0;fontFamily=Roboto;shadow=1;" parent="1" source="bslqSTpE_m5JZVY4g9k7-2" target="bslqSTpE_m5JZVY4g9k7-6" edge="1">
          <mxGeometry relative="1" as="geometry" />
        </mxCell>
        <mxCell id="bslqSTpE_m5JZVY4g9k7-13" style="edgeStyle=orthogonalEdgeStyle;rounded=0;orthogonalLoop=1;jettySize=auto;html=1;endArrow=none;startFill=0;fontFamily=Roboto;shadow=1;" parent="1" source="bslqSTpE_m5JZVY4g9k7-2" target="bslqSTpE_m5JZVY4g9k7-8" edge="1">
          <mxGeometry relative="1" as="geometry" />
        </mxCell>
        <mxCell id="bslqSTpE_m5JZVY4g9k7-15" style="edgeStyle=orthogonalEdgeStyle;rounded=0;orthogonalLoop=1;jettySize=auto;html=1;endArrow=none;startFill=0;fontFamily=Roboto;shadow=1;" parent="1" source="bslqSTpE_m5JZVY4g9k7-2" target="bslqSTpE_m5JZVY4g9k7-7" edge="1">
          <mxGeometry relative="1" as="geometry" />
        </mxCell>
        <mxCell id="bslqSTpE_m5JZVY4g9k7-2" value="&lt;div&gt;&lt;font style=&quot;font-size: 14px;&quot;&gt;(specific)&lt;/font&gt;&lt;/div&gt;&lt;font style=&quot;font-size: 28px;&quot;&gt;&lt;b style=&quot;&quot;&gt;Quality&lt;/b&gt;&lt;/font&gt;&lt;div&gt;&lt;font style=&quot;font-size: 14px;&quot;&gt;property / attribute&lt;/font&gt;&lt;/div&gt;" style="rounded=0;whiteSpace=wrap;html=1;fillColor=light-dark(#00B8F5,#EDEDED);fontFamily=Roboto;shadow=1;fontColor=#113040;" parent="1" vertex="1">
          <mxGeometry x="560" y="310" width="160" height="130" as="geometry" />
        </mxCell>
        <mxCell id="bslqSTpE_m5JZVY4g9k7-17" style="rounded=0;orthogonalLoop=1;jettySize=auto;html=1;endArrow=none;startFill=0;entryX=1;entryY=0.25;entryDx=0;entryDy=0;" parent="1" source="bslqSTpE_m5JZVY4g9k7-3" target="bslqSTpE_m5JZVY4g9k7-2" edge="1">
          <mxGeometry relative="1" as="geometry" />
        </mxCell>
        <mxCell id="bslqSTpE_m5JZVY4g9k7-3" value="&lt;font style=&quot;font-size: 22px;&quot;&gt;&lt;b style=&quot;&quot;&gt;Stakeholder&lt;/b&gt;&lt;/font&gt;" style="rounded=0;whiteSpace=wrap;html=1;fontFamily=Roboto;fillColor=#fff2cc;strokeColor=#d6b656;shadow=1;fontColor=#113040;" parent="1" vertex="1">
          <mxGeometry x="881" y="120" width="160" height="80" as="geometry" />
        </mxCell>
        <mxCell id="bslqSTpE_m5JZVY4g9k7-11" style="edgeStyle=orthogonalEdgeStyle;rounded=0;orthogonalLoop=1;jettySize=auto;html=1;endArrow=none;startFill=0;fontFamily=Roboto;shadow=1;" parent="1" source="bslqSTpE_m5JZVY4g9k7-4" target="bslqSTpE_m5JZVY4g9k7-1" edge="1">
          <mxGeometry relative="1" as="geometry" />
        </mxCell>
        <mxCell id="bslqSTpE_m5JZVY4g9k7-12" style="rounded=0;orthogonalLoop=1;jettySize=auto;html=1;entryX=0;entryY=0.25;entryDx=0;entryDy=0;endArrow=none;startFill=0;fontFamily=Roboto;shadow=1;" parent="1" source="bslqSTpE_m5JZVY4g9k7-4" target="bslqSTpE_m5JZVY4g9k7-2" edge="1">
          <mxGeometry relative="1" as="geometry" />
        </mxCell>
        <mxCell id="bslqSTpE_m5JZVY4g9k7-4" value="&lt;font&gt;System- or&lt;/font&gt;&lt;div&gt;&lt;font&gt;Product&lt;/font&gt;&lt;/div&gt;&lt;div&gt;&lt;font&gt;Quality&lt;/font&gt;&lt;/div&gt;" style="rounded=0;whiteSpace=wrap;html=1;fontFamily=Roboto;fillColor=#f5f5f5;fontColor=#333333;strokeColor=#666666;fontSize=21;fontStyle=1;shadow=1;" parent="1" vertex="1">
          <mxGeometry x="200" y="120" width="160" height="80" as="geometry" />
        </mxCell>
        <mxCell id="bslqSTpE_m5JZVY4g9k7-6" value="&lt;div&gt;&lt;b style=&quot;background-color: transparent;&quot;&gt;&lt;font style=&quot;font-size: 25px;&quot;&gt;Example&lt;/font&gt;&lt;/b&gt;&lt;/div&gt;&lt;div&gt;&lt;font&gt;&lt;b style=&quot;&quot;&gt;&lt;font style=&quot;font-size: 25px;&quot;&gt;Requirement&lt;/font&gt;&lt;br&gt;&lt;/b&gt;&lt;/font&gt;&lt;div&gt;&lt;font style=&quot;font-size: 14px;&quot;&gt;with metric /&lt;/font&gt;&lt;/div&gt;&lt;/div&gt;&lt;div&gt;&lt;font style=&quot;font-size: 14px;&quot;&gt;acceptance criterion&lt;/font&gt;&lt;/div&gt;" style="rounded=0;whiteSpace=wrap;html=1;fillColor=light-dark(#92EF80,#EDEDED);fontFamily=Roboto;shadow=1;" parent="1" vertex="1">
          <mxGeometry x="881" y="310" width="160" height="130" as="geometry" />
        </mxCell>
        <mxCell id="bslqSTpE_m5JZVY4g9k7-7" value="&lt;font style=&quot;color: rgb(17, 48, 64);&quot;&gt;&lt;font style=&quot;font-size: 21px;&quot;&gt;&lt;b style=&quot;&quot;&gt;Standard&lt;/b&gt;&lt;/font&gt;&lt;span style=&quot;font-size: 14px; background-color: transparent;&quot;&gt;&lt;br&gt;e.g. ISO-25010 or &lt;br&gt;ISO-27001&lt;/span&gt;&lt;/font&gt;" style="rounded=0;whiteSpace=wrap;html=1;fontFamily=Roboto;fillColor=#FFC95C;strokeColor=#56517e;shadow=1;" parent="1" vertex="1">
          <mxGeometry x="560" y="520" width="160" height="80" as="geometry" />
        </mxCell>
        <mxCell id="bslqSTpE_m5JZVY4g9k7-8" value="&lt;font style=&quot;font-size: 24px; color: rgb(230, 230, 230);&quot;&gt;&lt;b style=&quot;&quot;&gt;Approach&lt;/b&gt;&lt;/font&gt;&lt;div&gt;&lt;font style=&quot;font-size: 14px; color: rgb(230, 230, 230);&quot;&gt;Pattern, Tactic,&lt;/font&gt;&lt;/div&gt;&lt;div&gt;&lt;font style=&quot;font-size: 14px; color: rgb(230, 230, 230);&quot;&gt;Strategy&lt;/font&gt;&lt;/div&gt;" style="rounded=0;whiteSpace=wrap;html=1;fontFamily=Roboto;fillColor=#EC645B;strokeColor=light-dark(#ed645b, #d7817e);shadow=1;" parent="1" vertex="1">
          <mxGeometry x="200" y="335" width="160" height="80" as="geometry" />
        </mxCell>
        <mxCell id="bslqSTpE_m5JZVY4g9k7-18" style="rounded=0;orthogonalLoop=1;jettySize=auto;html=1;endArrow=none;startFill=0;entryX=0.5;entryY=0;entryDx=0;entryDy=0;exitX=0.5;exitY=1;exitDx=0;exitDy=0;" parent="1" source="bslqSTpE_m5JZVY4g9k7-3" target="bslqSTpE_m5JZVY4g9k7-6" edge="1">
          <mxGeometry relative="1" as="geometry">
            <mxPoint x="925" y="210" as="sourcePoint" />
            <mxPoint x="771" y="345" as="targetPoint" />
          </mxGeometry>
        </mxCell>
        <mxCell id="bslqSTpE_m5JZVY4g9k7-20" value="&lt;p class=&quot;p1&quot; style=&quot;margin: 0px; font-variant-numeric: normal; font-variant-east-asian: normal; font-variant-alternates: normal; font-size-adjust: none; font-kerning: auto; font-optical-sizing: auto; font-feature-settings: normal; font-variation-settings: normal; font-variant-position: normal; font-variant-emoji: normal; font-stretch: normal; line-height: normal;&quot;&gt;&lt;font style=&quot;font-size: 14px;&quot;&gt;interesting for→&lt;/font&gt;&lt;/p&gt;" style="text;html=1;align=center;verticalAlign=middle;whiteSpace=wrap;rounded=0;fontFamily=Roboto;" parent="1" vertex="1">
          <mxGeometry x="730" y="130" width="130" height="30" as="geometry" />
        </mxCell>
        <mxCell id="bslqSTpE_m5JZVY4g9k7-21" value="&lt;p class=&quot;p1&quot; style=&quot;margin: 0px; font-variant-numeric: normal; font-variant-east-asian: normal; font-variant-alternates: normal; font-size-adjust: none; font-kerning: auto; font-optical-sizing: auto; font-feature-settings: normal; font-variation-settings: normal; font-variant-position: normal; font-variant-emoji: normal; font-stretch: normal; line-height: normal;&quot;&gt;&lt;font style=&quot;font-size: 14px;&quot;&gt;structured into →&lt;/font&gt;&lt;/p&gt;" style="text;html=1;align=center;verticalAlign=middle;whiteSpace=wrap;rounded=0;fontFamily=Roboto;" parent="1" vertex="1">
          <mxGeometry x="390" y="130" width="130" height="30" as="geometry" />
        </mxCell>
        <mxCell id="bslqSTpE_m5JZVY4g9k7-22" value="&lt;p class=&quot;p1&quot; style=&quot;margin: 0px; font-variant-numeric: normal; font-variant-east-asian: normal; font-variant-alternates: normal; font-size-adjust: none; font-kerning: auto; font-optical-sizing: auto; font-feature-settings: normal; font-variation-settings: normal; font-variant-position: normal; font-variant-emoji: normal; font-stretch: normal; line-height: normal;&quot;&gt;&lt;font style=&quot;font-size: 14px;&quot;&gt;described by →&lt;/font&gt;&lt;/p&gt;" style="text;html=1;align=center;verticalAlign=middle;whiteSpace=wrap;rounded=0;fontFamily=Roboto;rotation=34;" parent="1" vertex="1">
          <mxGeometry x="388" y="245" width="130" height="20" as="geometry" />
        </mxCell>
        <mxCell id="clB7HIuaLna0Y5BmBfF5-1" value="&lt;p class=&quot;p1&quot; style=&quot;margin: 0px; font-variant-numeric: normal; font-variant-east-asian: normal; font-variant-alternates: normal; font-size-adjust: none; font-kerning: auto; font-optical-sizing: auto; font-feature-settings: normal; font-variation-settings: normal; font-variant-position: normal; font-variant-emoji: normal; font-stretch: normal; line-height: normal;&quot;&gt;&lt;font style=&quot;font-size: 14px;&quot;&gt;specified by →&lt;/font&gt;&lt;/p&gt;" style="text;html=1;align=center;verticalAlign=middle;whiteSpace=wrap;rounded=0;fontFamily=Roboto;" parent="1" vertex="1">
          <mxGeometry x="740" y="370" width="130" height="30" as="geometry" />
        </mxCell>
        <mxCell id="DFKi_qFQldfi5epkdJih-1" value="&lt;p style=&quot;margin: 0px; font-variant-numeric: normal; font-variant-east-asian: normal; font-variant-alternates: normal; font-size-adjust: none; font-kerning: auto; font-optical-sizing: auto; font-feature-settings: normal; font-variation-settings: normal; font-variant-position: normal; font-variant-emoji: normal; font-stretch: normal; line-height: normal;&quot; class=&quot;p1&quot;&gt;&lt;font style=&quot;font-size: 14px;&quot;&gt;#efficient&lt;/font&gt;&lt;/p&gt;" style="text;html=1;align=center;verticalAlign=middle;whiteSpace=wrap;rounded=0;fontFamily=Roboto;strokeColor=none;dashed=1;sketch=1;curveFitting=1;jiggle=2;fontColor=#004C99;" parent="1" vertex="1">
          <mxGeometry x="461" y="30" width="60" height="20" as="geometry" />
        </mxCell>
        <mxCell id="clB7HIuaLna0Y5BmBfF5-2" value="&lt;p class=&quot;p1&quot; style=&quot;margin: 0px; font-variant-numeric: normal; font-variant-east-asian: normal; font-variant-alternates: normal; font-size-adjust: none; font-kerning: auto; font-optical-sizing: auto; font-feature-settings: normal; font-variation-settings: normal; font-variant-position: normal; font-variant-emoji: normal; font-stretch: normal; line-height: normal;&quot;&gt;&lt;font style=&quot;font-size: 14px;&quot;&gt;enables / improves →&lt;/font&gt;&lt;/p&gt;" style="text;html=1;align=center;verticalAlign=middle;whiteSpace=wrap;rounded=0;fontFamily=Roboto;" parent="1" vertex="1">
          <mxGeometry x="380" y="370" width="150" height="30" as="geometry" />
        </mxCell>
        <mxCell id="DFKi_qFQldfi5epkdJih-2" value="&lt;p style=&quot;margin: 0px; font-variant-numeric: normal; font-variant-east-asian: normal; font-variant-alternates: normal; font-size-adjust: none; font-kerning: auto; font-optical-sizing: auto; font-feature-settings: normal; font-variation-settings: normal; font-variant-position: normal; font-variant-emoji: normal; font-stretch: normal; line-height: normal;&quot; class=&quot;p1&quot;&gt;&lt;font style=&quot;font-size: 14px;&quot;&gt;#flexible&lt;/font&gt;&lt;/p&gt;" style="text;html=1;align=center;verticalAlign=middle;whiteSpace=wrap;rounded=0;fontFamily=Roboto;fontColor=#004C99;" parent="1" vertex="1">
          <mxGeometry x="505" y="10" width="55" height="20" as="geometry" />
        </mxCell>
        <mxCell id="DFKi_qFQldfi5epkdJih-3" value="&lt;p style=&quot;margin: 0px; font-variant-numeric: normal; font-variant-east-asian: normal; font-variant-alternates: normal; font-size-adjust: none; font-kerning: auto; font-optical-sizing: auto; font-feature-settings: normal; font-variation-settings: normal; font-variant-position: normal; font-variant-emoji: normal; font-stretch: normal; line-height: normal;&quot; class=&quot;p1&quot;&gt;&lt;font style=&quot;font-size: 14px;&quot;&gt;#operable&lt;/font&gt;&lt;/p&gt;" style="text;html=1;align=center;verticalAlign=middle;whiteSpace=wrap;rounded=0;fontFamily=Roboto;fontColor=#004C99;" parent="1" vertex="1">
          <mxGeometry x="551" y="30" width="70" height="20" as="geometry" />
        </mxCell>
        <mxCell id="DFKi_qFQldfi5epkdJih-4" value="&lt;p style=&quot;margin: 0px; font-variant-numeric: normal; font-variant-east-asian: normal; font-variant-alternates: normal; font-size-adjust: none; font-kerning: auto; font-optical-sizing: auto; font-feature-settings: normal; font-variation-settings: normal; font-variant-position: normal; font-variant-emoji: normal; font-stretch: normal; line-height: normal;&quot; class=&quot;p1&quot;&gt;&lt;font style=&quot;font-size: 14px;&quot;&gt;#reliable&lt;/font&gt;&lt;/p&gt;" style="text;html=1;align=center;verticalAlign=middle;whiteSpace=wrap;rounded=0;fontFamily=Roboto;fontColor=#004C99;" parent="1" vertex="1">
          <mxGeometry x="591" y="10" width="70" height="20" as="geometry" />
        </mxCell>
        <mxCell id="DFKi_qFQldfi5epkdJih-5" value="&lt;p style=&quot;margin: 0px; font-variant-numeric: normal; font-variant-east-asian: normal; font-variant-alternates: normal; font-size-adjust: none; font-kerning: auto; font-optical-sizing: auto; font-feature-settings: normal; font-variation-settings: normal; font-variant-position: normal; font-variant-emoji: normal; font-stretch: normal; line-height: normal;&quot; class=&quot;p1&quot;&gt;&lt;span style=&quot;font-size: 14px;&quot;&gt;#safe&lt;/span&gt;&lt;/p&gt;" style="text;html=1;align=center;verticalAlign=middle;whiteSpace=wrap;rounded=0;fontFamily=Roboto;fontColor=#004C99;" parent="1" vertex="1">
          <mxGeometry x="636" y="30" width="70" height="20" as="geometry" />
        </mxCell>
        <mxCell id="DFKi_qFQldfi5epkdJih-6" value="&lt;p style=&quot;margin: 0px; font-variant-numeric: normal; font-variant-east-asian: normal; font-variant-alternates: normal; font-size-adjust: none; font-kerning: auto; font-optical-sizing: auto; font-feature-settings: normal; font-variation-settings: normal; font-variant-position: normal; font-variant-emoji: normal; font-stretch: normal; line-height: normal;&quot; class=&quot;p1&quot;&gt;&lt;font style=&quot;font-size: 14px;&quot;&gt;#secure&lt;/font&gt;&lt;/p&gt;" style="text;html=1;align=center;verticalAlign=middle;whiteSpace=wrap;rounded=0;fontFamily=Roboto;fontColor=#004C99;" parent="1" vertex="1">
          <mxGeometry x="691" y="10" width="70" height="20" as="geometry" />
        </mxCell>
        <mxCell id="DFKi_qFQldfi5epkdJih-7" value="&lt;p style=&quot;margin: 0px; font-variant-numeric: normal; font-variant-east-asian: normal; font-variant-alternates: normal; font-size-adjust: none; font-kerning: auto; font-optical-sizing: auto; font-feature-settings: normal; font-variation-settings: normal; font-variant-position: normal; font-variant-emoji: normal; font-stretch: normal; line-height: normal;&quot; class=&quot;p1&quot;&gt;&lt;font style=&quot;font-size: 14px;&quot;&gt;#suitable&lt;/font&gt;&lt;/p&gt;" style="text;html=1;align=center;verticalAlign=middle;whiteSpace=wrap;rounded=0;fontFamily=Roboto;fontColor=#004C99;" parent="1" vertex="1">
          <mxGeometry x="741" y="30" width="70" height="20" as="geometry" />
        </mxCell>
        <mxCell id="DFKi_qFQldfi5epkdJih-9" value="&lt;p style=&quot;margin: 0px; font-variant-numeric: normal; font-variant-east-asian: normal; font-variant-alternates: normal; font-size-adjust: none; font-kerning: auto; font-optical-sizing: auto; font-feature-settings: normal; font-variation-settings: normal; font-variant-position: normal; font-variant-emoji: normal; font-stretch: normal; line-height: normal;&quot; class=&quot;p1&quot;&gt;&lt;font style=&quot;font-size: 14px;&quot;&gt;#usable&lt;/font&gt;&lt;/p&gt;" style="text;html=1;align=center;verticalAlign=middle;whiteSpace=wrap;rounded=0;fontFamily=Roboto;fontColor=#004C99;" parent="1" vertex="1">
          <mxGeometry x="801" y="10" width="70" height="20" as="geometry" />
        </mxCell>
        <mxCell id="DFKi_qFQldfi5epkdJih-10" style="rounded=0;orthogonalLoop=1;jettySize=auto;html=1;endArrow=none;startFill=0;entryX=0.88;entryY=0;entryDx=0;entryDy=0;entryPerimeter=0;" parent="1" source="DFKi_qFQldfi5epkdJih-7" target="bslqSTpE_m5JZVY4g9k7-1" edge="1">
          <mxGeometry relative="1" as="geometry">
            <mxPoint x="918" y="210" as="sourcePoint" />
            <mxPoint x="730" y="353" as="targetPoint" />
          </mxGeometry>
        </mxCell>
        <mxCell id="DFKi_qFQldfi5epkdJih-11" style="rounded=0;orthogonalLoop=1;jettySize=auto;html=1;endArrow=none;startFill=0;entryX=0.75;entryY=0;entryDx=0;entryDy=0;" parent="1" source="DFKi_qFQldfi5epkdJih-6" target="bslqSTpE_m5JZVY4g9k7-1" edge="1">
          <mxGeometry relative="1" as="geometry">
            <mxPoint x="747" y="60" as="sourcePoint" />
            <mxPoint x="707" y="131" as="targetPoint" />
          </mxGeometry>
        </mxCell>
        <mxCell id="DFKi_qFQldfi5epkdJih-12" style="rounded=0;orthogonalLoop=1;jettySize=auto;html=1;endArrow=none;startFill=0;exitX=0.5;exitY=1;exitDx=0;exitDy=0;entryX=1;entryY=0;entryDx=0;entryDy=0;entryPerimeter=0;" parent="1" source="DFKi_qFQldfi5epkdJih-9" target="bslqSTpE_m5JZVY4g9k7-1" edge="1">
          <mxGeometry relative="1" as="geometry">
            <mxPoint x="747" y="60" as="sourcePoint" />
            <mxPoint x="710" y="120" as="targetPoint" />
          </mxGeometry>
        </mxCell>
        <mxCell id="DFKi_qFQldfi5epkdJih-13" style="rounded=0;orthogonalLoop=1;jettySize=auto;html=1;endArrow=none;startFill=0;exitX=0.5;exitY=1;exitDx=0;exitDy=0;" parent="1" source="DFKi_qFQldfi5epkdJih-4" edge="1">
          <mxGeometry relative="1" as="geometry">
            <mxPoint x="703" y="40" as="sourcePoint" />
            <mxPoint x="640" y="120" as="targetPoint" />
          </mxGeometry>
        </mxCell>
        <mxCell id="DFKi_qFQldfi5epkdJih-14" style="rounded=0;orthogonalLoop=1;jettySize=auto;html=1;endArrow=none;startFill=0;entryX=0.35;entryY=0;entryDx=0;entryDy=0;exitX=0.5;exitY=1;exitDx=0;exitDy=0;entryPerimeter=0;" parent="1" source="DFKi_qFQldfi5epkdJih-3" target="bslqSTpE_m5JZVY4g9k7-1" edge="1">
          <mxGeometry relative="1" as="geometry">
            <mxPoint x="713" y="50" as="sourcePoint" />
            <mxPoint x="700" y="140" as="targetPoint" />
          </mxGeometry>
        </mxCell>
        <mxCell id="DFKi_qFQldfi5epkdJih-15" style="rounded=0;orthogonalLoop=1;jettySize=auto;html=1;endArrow=none;startFill=0;entryX=0.23;entryY=0;entryDx=0;entryDy=0;exitX=0.5;exitY=1;exitDx=0;exitDy=0;entryPerimeter=0;" parent="1" source="DFKi_qFQldfi5epkdJih-2" target="bslqSTpE_m5JZVY4g9k7-1" edge="1">
          <mxGeometry relative="1" as="geometry">
            <mxPoint x="723" y="60" as="sourcePoint" />
            <mxPoint x="710" y="150" as="targetPoint" />
          </mxGeometry>
        </mxCell>
        <mxCell id="DFKi_qFQldfi5epkdJih-16" style="rounded=0;orthogonalLoop=1;jettySize=auto;html=1;endArrow=none;startFill=0;entryX=0.63;entryY=0;entryDx=0;entryDy=0;exitX=0.5;exitY=1;exitDx=0;exitDy=0;entryPerimeter=0;" parent="1" source="DFKi_qFQldfi5epkdJih-5" target="bslqSTpE_m5JZVY4g9k7-1" edge="1">
          <mxGeometry relative="1" as="geometry">
            <mxPoint x="733" y="70" as="sourcePoint" />
            <mxPoint x="720" y="160" as="targetPoint" />
          </mxGeometry>
        </mxCell>
        <mxCell id="DFKi_qFQldfi5epkdJih-17" style="rounded=0;orthogonalLoop=1;jettySize=auto;html=1;endArrow=none;startFill=0;entryX=0.11;entryY=0;entryDx=0;entryDy=0;exitX=0.5;exitY=1;exitDx=0;exitDy=0;entryPerimeter=0;" parent="1" source="DFKi_qFQldfi5epkdJih-1" target="bslqSTpE_m5JZVY4g9k7-1" edge="1">
          <mxGeometry relative="1" as="geometry">
            <mxPoint x="513" y="40" as="sourcePoint" />
            <mxPoint x="607" y="130" as="targetPoint" />
          </mxGeometry>
        </mxCell>
        <mxCell id="DFKi_qFQldfi5epkdJih-18" style="rounded=0;orthogonalLoop=1;jettySize=auto;html=1;endArrow=none;startFill=0;entryX=1;entryY=0;entryDx=0;entryDy=0;entryPerimeter=0;strokeColor=#3399FF;strokeWidth=1;dashed=1;fontColor=#004C99;" parent="1" edge="1">
          <mxGeometry relative="1" as="geometry">
            <mxPoint x="751" y="29.39" as="sourcePoint" />
            <mxPoint x="701" y="29.39" as="targetPoint" />
          </mxGeometry>
        </mxCell>
        <mxCell id="DFKi_qFQldfi5epkdJih-19" style="rounded=0;orthogonalLoop=1;jettySize=auto;html=1;endArrow=none;startFill=0;entryX=1;entryY=0;entryDx=0;entryDy=0;entryPerimeter=0;strokeColor=#3399FF;strokeWidth=1;dashed=1;fontColor=#004C99;" parent="1" edge="1">
          <mxGeometry relative="1" as="geometry">
            <mxPoint x="801" y="49.39" as="sourcePoint" />
            <mxPoint x="751" y="49.39" as="targetPoint" />
          </mxGeometry>
        </mxCell>
        <mxCell id="DFKi_qFQldfi5epkdJih-20" style="rounded=0;orthogonalLoop=1;jettySize=auto;html=1;endArrow=none;startFill=0;entryX=1;entryY=0;entryDx=0;entryDy=0;entryPerimeter=0;strokeColor=#3399FF;strokeWidth=1;dashed=1;fontColor=#004C99;" parent="1" edge="1">
          <mxGeometry relative="1" as="geometry">
            <mxPoint x="651" y="29.39" as="sourcePoint" />
            <mxPoint x="601" y="29.39" as="targetPoint" />
          </mxGeometry>
        </mxCell>
        <mxCell id="DFKi_qFQldfi5epkdJih-21" style="rounded=0;orthogonalLoop=1;jettySize=auto;html=1;endArrow=none;startFill=0;entryX=1;entryY=0;entryDx=0;entryDy=0;entryPerimeter=0;strokeColor=#3399FF;strokeWidth=1;dashed=1;fontColor=#004C99;" parent="1" edge="1">
          <mxGeometry relative="1" as="geometry">
            <mxPoint x="556" y="29.39" as="sourcePoint" />
            <mxPoint x="506" y="29.39" as="targetPoint" />
          </mxGeometry>
        </mxCell>
        <mxCell id="DFKi_qFQldfi5epkdJih-22" style="rounded=0;orthogonalLoop=1;jettySize=auto;html=1;endArrow=none;startFill=0;entryX=1;entryY=0;entryDx=0;entryDy=0;entryPerimeter=0;strokeColor=#3399FF;strokeWidth=1;dashed=1;fontColor=#004C99;" parent="1" edge="1">
          <mxGeometry relative="1" as="geometry">
            <mxPoint x="520" y="50" as="sourcePoint" />
            <mxPoint x="470" y="50" as="targetPoint" />
          </mxGeometry>
        </mxCell>
        <mxCell id="DFKi_qFQldfi5epkdJih-23" style="rounded=0;orthogonalLoop=1;jettySize=auto;html=1;endArrow=none;startFill=0;entryX=1;entryY=0;entryDx=0;entryDy=0;entryPerimeter=0;strokeColor=#3399FF;strokeWidth=1;dashed=1;fontColor=#004C99;" parent="1" edge="1">
          <mxGeometry relative="1" as="geometry">
            <mxPoint x="611" y="49.39" as="sourcePoint" />
            <mxPoint x="561" y="49.39" as="targetPoint" />
          </mxGeometry>
        </mxCell>
        <mxCell id="DFKi_qFQldfi5epkdJih-24" style="rounded=0;orthogonalLoop=1;jettySize=auto;html=1;endArrow=none;startFill=0;entryX=1;entryY=0;entryDx=0;entryDy=0;entryPerimeter=0;strokeColor=#3399FF;strokeWidth=1;dashed=1;fontColor=#004C99;" parent="1" edge="1">
          <mxGeometry relative="1" as="geometry">
            <mxPoint x="861" y="29.39" as="sourcePoint" />
            <mxPoint x="811" y="29.39" as="targetPoint" />
          </mxGeometry>
        </mxCell>
        <mxCell id="DFKi_qFQldfi5epkdJih-25" style="rounded=0;orthogonalLoop=1;jettySize=auto;html=1;endArrow=none;startFill=0;entryX=1;entryY=0;entryDx=0;entryDy=0;entryPerimeter=0;strokeColor=#3399FF;strokeWidth=1;dashed=1;fontColor=#004C99;" parent="1" edge="1">
          <mxGeometry relative="1" as="geometry">
            <mxPoint x="696" y="50" as="sourcePoint" />
            <mxPoint x="646" y="50" as="targetPoint" />
          </mxGeometry>
        </mxCell>
        <mxCell id="Z8duR8wud0pU5MO8DkI5-1" value="" style="group" parent="1" vertex="1" connectable="0">
          <mxGeometry x="510" y="280" width="130" height="21" as="geometry" />
        </mxCell>
        <mxCell id="Z8duR8wud0pU5MO8DkI5-2" value="&lt;p class=&quot;p1&quot; style=&quot;margin: 0px; font-variant-numeric: normal; font-variant-east-asian: normal; font-variant-alternates: normal; font-size-adjust: none; font-kerning: auto; font-optical-sizing: auto; font-feature-settings: normal; font-variation-settings: normal; font-variant-position: normal; font-variant-emoji: normal; font-stretch: normal; line-height: normal;&quot;&gt;&lt;font style=&quot;font-size: 14px;&quot;&gt;associated with&lt;/font&gt;&lt;/p&gt;" style="text;html=1;align=center;verticalAlign=middle;whiteSpace=wrap;rounded=0;fontFamily=Roboto;rotation=0;" parent="Z8duR8wud0pU5MO8DkI5-1" vertex="1">
          <mxGeometry width="130" height="20" as="geometry" />
        </mxCell>
        <mxCell id="Z8duR8wud0pU5MO8DkI5-3" value="&lt;p class=&quot;p1&quot; style=&quot;margin: 0px; font-variant-numeric: normal; font-variant-east-asian: normal; font-variant-alternates: normal; font-size-adjust: none; font-kerning: auto; font-optical-sizing: auto; font-feature-settings: normal; font-variation-settings: normal; font-variant-position: normal; font-variant-emoji: normal; font-stretch: normal; line-height: normal;&quot;&gt;&lt;font&gt;→&lt;/font&gt;&lt;/p&gt;" style="text;html=1;align=center;verticalAlign=middle;whiteSpace=wrap;rounded=0;fontFamily=Roboto;rotation=-90;fontSize=16;" parent="Z8duR8wud0pU5MO8DkI5-1" vertex="1">
          <mxGeometry x="110" y="1" width="20" height="20" as="geometry" />
        </mxCell>
        <mxCell id="2jAuBLktXPlihFXouwon-1" value="&lt;p class=&quot;p1&quot; style=&quot;margin: 0px; font-variant-numeric: normal; font-variant-east-asian: normal; font-variant-alternates: normal; font-size-adjust: none; font-kerning: auto; font-optical-sizing: auto; font-feature-settings: normal; font-variation-settings: normal; font-variant-position: normal; font-variant-emoji: normal; font-stretch: normal; line-height: normal;&quot;&gt;&lt;font style=&quot;font-size: 14px;&quot;&gt;interesting for→&lt;/font&gt;&lt;/p&gt;" style="text;html=1;align=center;verticalAlign=middle;whiteSpace=wrap;rounded=0;fontFamily=Roboto;rotation=321;" parent="1" vertex="1">
          <mxGeometry x="740" y="247" width="130" height="30" as="geometry" />
        </mxCell>
      </root>
    </mxGraphModel>
  </diagram>
  <diagram name="Q42-properties-tags" id="z3njh7XXuNKZ-HJ5RGY5">
    <mxGraphModel dx="791" dy="872" grid="0" gridSize="10" guides="1" tooltips="1" connect="1" arrows="1" fold="1" page="1" pageScale="1" pageWidth="1169" pageHeight="827" math="0" shadow="0">
      <root>
        <mxCell id="9wflpos8cuGk7jXia3fv-0" />
        <mxCell id="9wflpos8cuGk7jXia3fv-1" parent="9wflpos8cuGk7jXia3fv-0" />
        <mxCell id="0CqT6UI3sUiD8PZ4W5n_-1" style="edgeStyle=orthogonalEdgeStyle;rounded=0;orthogonalLoop=1;jettySize=auto;html=1;endArrow=none;startFill=0;shadow=1;" edge="1" parent="9wflpos8cuGk7jXia3fv-1" source="0CqT6UI3sUiD8PZ4W5n_-2" target="0CqT6UI3sUiD8PZ4W5n_-4">
          <mxGeometry relative="1" as="geometry" />
        </mxCell>
        <mxCell id="0CqT6UI3sUiD8PZ4W5n_-2" value="&lt;font style=&quot;font-size: 14px;&quot;&gt;(top-level)&lt;/font&gt;&lt;div&gt;&lt;font style=&quot;font-size: 24px;&quot;&gt;&lt;b&gt;Property&lt;/b&gt;&lt;/font&gt;&lt;/div&gt;&lt;div&gt;&lt;font style=&quot;font-size: 14px;&quot;&gt;tag, label&lt;/font&gt;&lt;/div&gt;" style="rounded=0;whiteSpace=wrap;html=1;fillColor=light-dark(#00B8F5,#EDEDED);fontFamily=Roboto;shadow=1;points=[[0,0,0,0,0],[0,0.5,0,0,0],[0,1,0,0,0],[0.11,0,0,0,0],[0.23,0,0,0,0],[0.25,1,0,0,0],[0.35,0,0,0,0],[0.5,0,0,0,0],[0.5,1,0,0,0],[0.63,0,0,0,0],[0.75,0,0,0,0],[0.75,1,0,0,0],[0.88,0,0,0,0],[1,0,0,0,0],[1,0.5,0,0,0],[1,1,0,0,0]];fontColor=#113040;" vertex="1" parent="9wflpos8cuGk7jXia3fv-1">
          <mxGeometry x="722" y="760" width="160" height="80" as="geometry" />
        </mxCell>
        <mxCell id="0CqT6UI3sUiD8PZ4W5n_-3" style="rounded=0;orthogonalLoop=1;jettySize=auto;html=1;entryX=0;entryY=0.5;entryDx=0;entryDy=0;endArrow=none;startFill=0;fontFamily=Roboto;shadow=1;" edge="1" parent="9wflpos8cuGk7jXia3fv-1" source="0CqT6UI3sUiD8PZ4W5n_-4" target="0CqT6UI3sUiD8PZ4W5n_-7">
          <mxGeometry relative="1" as="geometry" />
        </mxCell>
        <mxCell id="0CqT6UI3sUiD8PZ4W5n_-4" value="&lt;div&gt;&lt;font style=&quot;font-size: 14px;&quot;&gt;(specific)&lt;/font&gt;&lt;/div&gt;&lt;font style=&quot;font-size: 28px;&quot;&gt;&lt;b style=&quot;&quot;&gt;Quality&lt;/b&gt;&lt;/font&gt;&lt;div&gt;&lt;font style=&quot;font-size: 14px;&quot;&gt;property / attribute&lt;/font&gt;&lt;/div&gt;" style="rounded=0;whiteSpace=wrap;html=1;fillColor=light-dark(#00B8F5,#EDEDED);fontFamily=Roboto;shadow=1;fontColor=#113040;" vertex="1" parent="9wflpos8cuGk7jXia3fv-1">
          <mxGeometry x="722" y="950" width="160" height="130" as="geometry" />
        </mxCell>
        <mxCell id="0CqT6UI3sUiD8PZ4W5n_-7" value="&lt;div&gt;&lt;b style=&quot;background-color: transparent;&quot;&gt;&lt;font style=&quot;font-size: 25px;&quot;&gt;Example&lt;/font&gt;&lt;/b&gt;&lt;/div&gt;&lt;div&gt;&lt;font&gt;&lt;b style=&quot;&quot;&gt;&lt;font style=&quot;font-size: 25px;&quot;&gt;Requirement&lt;/font&gt;&lt;br&gt;&lt;/b&gt;&lt;/font&gt;&lt;div&gt;&lt;font style=&quot;font-size: 14px;&quot;&gt;with metric /&lt;/font&gt;&lt;/div&gt;&lt;/div&gt;&lt;div&gt;&lt;font style=&quot;font-size: 14px;&quot;&gt;acceptance criterion&lt;/font&gt;&lt;/div&gt;" style="rounded=0;whiteSpace=wrap;html=1;fillColor=light-dark(#92EF80,#EDEDED);fontFamily=Roboto;shadow=1;" vertex="1" parent="9wflpos8cuGk7jXia3fv-1">
          <mxGeometry x="1043" y="950" width="160" height="130" as="geometry" />
        </mxCell>
        <mxCell id="0CqT6UI3sUiD8PZ4W5n_-10" value="&lt;p class=&quot;p1&quot; style=&quot;margin: 0px; font-variant-numeric: normal; font-variant-east-asian: normal; font-variant-alternates: normal; font-size-adjust: none; font-kerning: auto; font-optical-sizing: auto; font-feature-settings: normal; font-variation-settings: normal; font-variant-position: normal; font-variant-emoji: normal; font-stretch: normal; line-height: normal;&quot;&gt;&lt;font style=&quot;font-size: 14px;&quot;&gt;specified by →&lt;/font&gt;&lt;/p&gt;" style="text;html=1;align=center;verticalAlign=middle;whiteSpace=wrap;rounded=0;fontFamily=Roboto;" vertex="1" parent="9wflpos8cuGk7jXia3fv-1">
          <mxGeometry x="902" y="1010" width="130" height="30" as="geometry" />
        </mxCell>
        <mxCell id="0CqT6UI3sUiD8PZ4W5n_-11" value="&lt;p style=&quot;margin: 0px; font-variant-numeric: normal; font-variant-east-asian: normal; font-variant-alternates: normal; font-size-adjust: none; font-kerning: auto; font-optical-sizing: auto; font-feature-settings: normal; font-variation-settings: normal; font-variant-position: normal; font-variant-emoji: normal; font-stretch: normal; line-height: normal;&quot; class=&quot;p1&quot;&gt;&lt;font style=&quot;font-size: 14px;&quot;&gt;#flexible&lt;/font&gt;&lt;/p&gt;" style="text;html=1;align=center;verticalAlign=middle;whiteSpace=wrap;rounded=0;fontFamily=Roboto;fontColor=#004C99;" vertex="1" parent="9wflpos8cuGk7jXia3fv-1">
          <mxGeometry x="667" y="650" width="55" height="20" as="geometry" />
        </mxCell>
        <mxCell id="0CqT6UI3sUiD8PZ4W5n_-12" value="&lt;p style=&quot;margin: 0px; font-variant-numeric: normal; font-variant-east-asian: normal; font-variant-alternates: normal; font-size-adjust: none; font-kerning: auto; font-optical-sizing: auto; font-feature-settings: normal; font-variation-settings: normal; font-variant-position: normal; font-variant-emoji: normal; font-stretch: normal; line-height: normal;&quot; class=&quot;p1&quot;&gt;&lt;font style=&quot;font-size: 14px;&quot;&gt;#operable&lt;/font&gt;&lt;/p&gt;" style="text;html=1;align=center;verticalAlign=middle;whiteSpace=wrap;rounded=0;fontFamily=Roboto;fontColor=#004C99;" vertex="1" parent="9wflpos8cuGk7jXia3fv-1">
          <mxGeometry x="713" y="670" width="70" height="20" as="geometry" />
        </mxCell>
        <mxCell id="0CqT6UI3sUiD8PZ4W5n_-13" value="&lt;p style=&quot;margin: 0px; font-variant-numeric: normal; font-variant-east-asian: normal; font-variant-alternates: normal; font-size-adjust: none; font-kerning: auto; font-optical-sizing: auto; font-feature-settings: normal; font-variation-settings: normal; font-variant-position: normal; font-variant-emoji: normal; font-stretch: normal; line-height: normal;&quot; class=&quot;p1&quot;&gt;&lt;font style=&quot;font-size: 14px;&quot;&gt;#reliable&lt;/font&gt;&lt;/p&gt;" style="text;html=1;align=center;verticalAlign=middle;whiteSpace=wrap;rounded=0;fontFamily=Roboto;fontColor=#004C99;" vertex="1" parent="9wflpos8cuGk7jXia3fv-1">
          <mxGeometry x="753" y="650" width="70" height="20" as="geometry" />
        </mxCell>
        <mxCell id="0CqT6UI3sUiD8PZ4W5n_-14" value="&lt;p style=&quot;margin: 0px; font-variant-numeric: normal; font-variant-east-asian: normal; font-variant-alternates: normal; font-size-adjust: none; font-kerning: auto; font-optical-sizing: auto; font-feature-settings: normal; font-variation-settings: normal; font-variant-position: normal; font-variant-emoji: normal; font-stretch: normal; line-height: normal;&quot; class=&quot;p1&quot;&gt;&lt;span style=&quot;font-size: 14px;&quot;&gt;#safe&lt;/span&gt;&lt;/p&gt;" style="text;html=1;align=center;verticalAlign=middle;whiteSpace=wrap;rounded=0;fontFamily=Roboto;fontColor=#004C99;" vertex="1" parent="9wflpos8cuGk7jXia3fv-1">
          <mxGeometry x="798" y="670" width="70" height="20" as="geometry" />
        </mxCell>
        <mxCell id="0CqT6UI3sUiD8PZ4W5n_-15" value="&lt;p style=&quot;margin: 0px; font-variant-numeric: normal; font-variant-east-asian: normal; font-variant-alternates: normal; font-size-adjust: none; font-kerning: auto; font-optical-sizing: auto; font-feature-settings: normal; font-variation-settings: normal; font-variant-position: normal; font-variant-emoji: normal; font-stretch: normal; line-height: normal;&quot; class=&quot;p1&quot;&gt;&lt;font style=&quot;font-size: 14px;&quot;&gt;#secure&lt;/font&gt;&lt;/p&gt;" style="text;html=1;align=center;verticalAlign=middle;whiteSpace=wrap;rounded=0;fontFamily=Roboto;fontColor=#004C99;" vertex="1" parent="9wflpos8cuGk7jXia3fv-1">
          <mxGeometry x="853" y="650" width="70" height="20" as="geometry" />
        </mxCell>
        <mxCell id="0CqT6UI3sUiD8PZ4W5n_-16" value="&lt;p style=&quot;margin: 0px; font-variant-numeric: normal; font-variant-east-asian: normal; font-variant-alternates: normal; font-size-adjust: none; font-kerning: auto; font-optical-sizing: auto; font-feature-settings: normal; font-variation-settings: normal; font-variant-position: normal; font-variant-emoji: normal; font-stretch: normal; line-height: normal;&quot; class=&quot;p1&quot;&gt;&lt;font style=&quot;font-size: 14px;&quot;&gt;#suitable&lt;/font&gt;&lt;/p&gt;" style="text;html=1;align=center;verticalAlign=middle;whiteSpace=wrap;rounded=0;fontFamily=Roboto;fontColor=#004C99;" vertex="1" parent="9wflpos8cuGk7jXia3fv-1">
          <mxGeometry x="903" y="670" width="70" height="20" as="geometry" />
        </mxCell>
        <mxCell id="0CqT6UI3sUiD8PZ4W5n_-17" value="&lt;p style=&quot;margin: 0px; font-variant-numeric: normal; font-variant-east-asian: normal; font-variant-alternates: normal; font-size-adjust: none; font-kerning: auto; font-optical-sizing: auto; font-feature-settings: normal; font-variation-settings: normal; font-variant-position: normal; font-variant-emoji: normal; font-stretch: normal; line-height: normal;&quot; class=&quot;p1&quot;&gt;&lt;font style=&quot;font-size: 14px;&quot;&gt;#usable&lt;/font&gt;&lt;/p&gt;" style="text;html=1;align=center;verticalAlign=middle;whiteSpace=wrap;rounded=0;fontFamily=Roboto;fontColor=#004C99;" vertex="1" parent="9wflpos8cuGk7jXia3fv-1">
          <mxGeometry x="963" y="650" width="70" height="20" as="geometry" />
        </mxCell>
        <mxCell id="0CqT6UI3sUiD8PZ4W5n_-18" style="rounded=0;orthogonalLoop=1;jettySize=auto;html=1;endArrow=none;startFill=0;entryX=0.88;entryY=0;entryDx=0;entryDy=0;entryPerimeter=0;" edge="1" parent="9wflpos8cuGk7jXia3fv-1" source="0CqT6UI3sUiD8PZ4W5n_-16" target="0CqT6UI3sUiD8PZ4W5n_-2">
          <mxGeometry relative="1" as="geometry">
            <mxPoint x="1080" y="850" as="sourcePoint" />
            <mxPoint x="892" y="993" as="targetPoint" />
          </mxGeometry>
        </mxCell>
        <mxCell id="0CqT6UI3sUiD8PZ4W5n_-19" style="rounded=0;orthogonalLoop=1;jettySize=auto;html=1;endArrow=none;startFill=0;entryX=0.75;entryY=0;entryDx=0;entryDy=0;" edge="1" parent="9wflpos8cuGk7jXia3fv-1" source="0CqT6UI3sUiD8PZ4W5n_-15" target="0CqT6UI3sUiD8PZ4W5n_-2">
          <mxGeometry relative="1" as="geometry">
            <mxPoint x="909" y="700" as="sourcePoint" />
            <mxPoint x="869" y="771" as="targetPoint" />
          </mxGeometry>
        </mxCell>
        <mxCell id="0CqT6UI3sUiD8PZ4W5n_-20" style="rounded=0;orthogonalLoop=1;jettySize=auto;html=1;endArrow=none;startFill=0;exitX=0.5;exitY=1;exitDx=0;exitDy=0;entryX=1;entryY=0;entryDx=0;entryDy=0;entryPerimeter=0;" edge="1" parent="9wflpos8cuGk7jXia3fv-1" source="0CqT6UI3sUiD8PZ4W5n_-17" target="0CqT6UI3sUiD8PZ4W5n_-2">
          <mxGeometry relative="1" as="geometry">
            <mxPoint x="909" y="700" as="sourcePoint" />
            <mxPoint x="872" y="760" as="targetPoint" />
          </mxGeometry>
        </mxCell>
        <mxCell id="0CqT6UI3sUiD8PZ4W5n_-21" style="rounded=0;orthogonalLoop=1;jettySize=auto;html=1;endArrow=none;startFill=0;exitX=0.5;exitY=1;exitDx=0;exitDy=0;" edge="1" parent="9wflpos8cuGk7jXia3fv-1" source="0CqT6UI3sUiD8PZ4W5n_-13">
          <mxGeometry relative="1" as="geometry">
            <mxPoint x="865" y="680" as="sourcePoint" />
            <mxPoint x="802" y="760" as="targetPoint" />
          </mxGeometry>
        </mxCell>
        <mxCell id="0CqT6UI3sUiD8PZ4W5n_-22" style="rounded=0;orthogonalLoop=1;jettySize=auto;html=1;endArrow=none;startFill=0;entryX=0.35;entryY=0;entryDx=0;entryDy=0;exitX=0.5;exitY=1;exitDx=0;exitDy=0;entryPerimeter=0;" edge="1" parent="9wflpos8cuGk7jXia3fv-1" source="0CqT6UI3sUiD8PZ4W5n_-12" target="0CqT6UI3sUiD8PZ4W5n_-2">
          <mxGeometry relative="1" as="geometry">
            <mxPoint x="875" y="690" as="sourcePoint" />
            <mxPoint x="862" y="780" as="targetPoint" />
          </mxGeometry>
        </mxCell>
        <mxCell id="0CqT6UI3sUiD8PZ4W5n_-23" style="rounded=0;orthogonalLoop=1;jettySize=auto;html=1;endArrow=none;startFill=0;entryX=0.23;entryY=0;entryDx=0;entryDy=0;exitX=0.5;exitY=1;exitDx=0;exitDy=0;entryPerimeter=0;" edge="1" parent="9wflpos8cuGk7jXia3fv-1" source="0CqT6UI3sUiD8PZ4W5n_-11" target="0CqT6UI3sUiD8PZ4W5n_-2">
          <mxGeometry relative="1" as="geometry">
            <mxPoint x="885" y="700" as="sourcePoint" />
            <mxPoint x="872" y="790" as="targetPoint" />
          </mxGeometry>
        </mxCell>
        <mxCell id="0CqT6UI3sUiD8PZ4W5n_-24" style="rounded=0;orthogonalLoop=1;jettySize=auto;html=1;endArrow=none;startFill=0;entryX=0.63;entryY=0;entryDx=0;entryDy=0;exitX=0.5;exitY=1;exitDx=0;exitDy=0;entryPerimeter=0;" edge="1" parent="9wflpos8cuGk7jXia3fv-1" source="0CqT6UI3sUiD8PZ4W5n_-14" target="0CqT6UI3sUiD8PZ4W5n_-2">
          <mxGeometry relative="1" as="geometry">
            <mxPoint x="895" y="710" as="sourcePoint" />
            <mxPoint x="882" y="800" as="targetPoint" />
          </mxGeometry>
        </mxCell>
        <mxCell id="0CqT6UI3sUiD8PZ4W5n_-25" style="rounded=0;orthogonalLoop=1;jettySize=auto;html=1;endArrow=none;startFill=0;entryX=0.11;entryY=0;entryDx=0;entryDy=0;exitX=0.5;exitY=1;exitDx=0;exitDy=0;entryPerimeter=0;" edge="1" parent="9wflpos8cuGk7jXia3fv-1" target="0CqT6UI3sUiD8PZ4W5n_-2">
          <mxGeometry relative="1" as="geometry">
            <mxPoint x="653" y="690" as="sourcePoint" />
            <mxPoint x="769" y="770" as="targetPoint" />
          </mxGeometry>
        </mxCell>
        <mxCell id="0CqT6UI3sUiD8PZ4W5n_-26" style="rounded=0;orthogonalLoop=1;jettySize=auto;html=1;endArrow=none;startFill=0;entryX=1;entryY=0;entryDx=0;entryDy=0;entryPerimeter=0;strokeColor=#3399FF;strokeWidth=1;dashed=1;fontColor=#004C99;" edge="1" parent="9wflpos8cuGk7jXia3fv-1">
          <mxGeometry relative="1" as="geometry">
            <mxPoint x="913" y="669.39" as="sourcePoint" />
            <mxPoint x="863" y="669.39" as="targetPoint" />
          </mxGeometry>
        </mxCell>
        <mxCell id="0CqT6UI3sUiD8PZ4W5n_-27" style="rounded=0;orthogonalLoop=1;jettySize=auto;html=1;endArrow=none;startFill=0;entryX=1;entryY=0;entryDx=0;entryDy=0;entryPerimeter=0;strokeColor=#3399FF;strokeWidth=1;dashed=1;fontColor=#004C99;" edge="1" parent="9wflpos8cuGk7jXia3fv-1">
          <mxGeometry relative="1" as="geometry">
            <mxPoint x="963" y="689.39" as="sourcePoint" />
            <mxPoint x="913" y="689.39" as="targetPoint" />
          </mxGeometry>
        </mxCell>
        <mxCell id="0CqT6UI3sUiD8PZ4W5n_-28" style="rounded=0;orthogonalLoop=1;jettySize=auto;html=1;endArrow=none;startFill=0;entryX=1;entryY=0;entryDx=0;entryDy=0;entryPerimeter=0;strokeColor=#3399FF;strokeWidth=1;dashed=1;fontColor=#004C99;" edge="1" parent="9wflpos8cuGk7jXia3fv-1">
          <mxGeometry relative="1" as="geometry">
            <mxPoint x="813" y="669.39" as="sourcePoint" />
            <mxPoint x="763" y="669.39" as="targetPoint" />
          </mxGeometry>
        </mxCell>
        <mxCell id="0CqT6UI3sUiD8PZ4W5n_-29" style="rounded=0;orthogonalLoop=1;jettySize=auto;html=1;endArrow=none;startFill=0;entryX=1;entryY=0;entryDx=0;entryDy=0;entryPerimeter=0;strokeColor=#3399FF;strokeWidth=1;dashed=1;fontColor=#004C99;" edge="1" parent="9wflpos8cuGk7jXia3fv-1">
          <mxGeometry relative="1" as="geometry">
            <mxPoint x="718" y="669.39" as="sourcePoint" />
            <mxPoint x="668" y="669.39" as="targetPoint" />
          </mxGeometry>
        </mxCell>
        <mxCell id="0CqT6UI3sUiD8PZ4W5n_-30" style="rounded=0;orthogonalLoop=1;jettySize=auto;html=1;endArrow=none;startFill=0;entryX=1;entryY=0;entryDx=0;entryDy=0;entryPerimeter=0;strokeColor=#3399FF;strokeWidth=1;dashed=1;fontColor=#004C99;" edge="1" parent="9wflpos8cuGk7jXia3fv-1">
          <mxGeometry relative="1" as="geometry">
            <mxPoint x="682" y="690" as="sourcePoint" />
            <mxPoint x="632" y="690" as="targetPoint" />
          </mxGeometry>
        </mxCell>
        <mxCell id="0CqT6UI3sUiD8PZ4W5n_-31" style="rounded=0;orthogonalLoop=1;jettySize=auto;html=1;endArrow=none;startFill=0;entryX=1;entryY=0;entryDx=0;entryDy=0;entryPerimeter=0;strokeColor=#3399FF;strokeWidth=1;dashed=1;fontColor=#004C99;" edge="1" parent="9wflpos8cuGk7jXia3fv-1">
          <mxGeometry relative="1" as="geometry">
            <mxPoint x="773" y="689.39" as="sourcePoint" />
            <mxPoint x="723" y="689.39" as="targetPoint" />
          </mxGeometry>
        </mxCell>
        <mxCell id="0CqT6UI3sUiD8PZ4W5n_-32" style="rounded=0;orthogonalLoop=1;jettySize=auto;html=1;endArrow=none;startFill=0;entryX=1;entryY=0;entryDx=0;entryDy=0;entryPerimeter=0;strokeColor=#3399FF;strokeWidth=1;dashed=1;fontColor=#004C99;" edge="1" parent="9wflpos8cuGk7jXia3fv-1">
          <mxGeometry relative="1" as="geometry">
            <mxPoint x="1023" y="669.39" as="sourcePoint" />
            <mxPoint x="973" y="669.39" as="targetPoint" />
          </mxGeometry>
        </mxCell>
        <mxCell id="0CqT6UI3sUiD8PZ4W5n_-33" style="rounded=0;orthogonalLoop=1;jettySize=auto;html=1;endArrow=none;startFill=0;entryX=1;entryY=0;entryDx=0;entryDy=0;entryPerimeter=0;strokeColor=#3399FF;strokeWidth=1;dashed=1;fontColor=#004C99;" edge="1" parent="9wflpos8cuGk7jXia3fv-1">
          <mxGeometry relative="1" as="geometry">
            <mxPoint x="858" y="690" as="sourcePoint" />
            <mxPoint x="808" y="690" as="targetPoint" />
          </mxGeometry>
        </mxCell>
        <mxCell id="0CqT6UI3sUiD8PZ4W5n_-34" value="" style="group" vertex="1" connectable="0" parent="9wflpos8cuGk7jXia3fv-1">
          <mxGeometry x="672" y="920" width="130" height="21" as="geometry" />
        </mxCell>
        <mxCell id="0CqT6UI3sUiD8PZ4W5n_-35" value="&lt;p class=&quot;p1&quot; style=&quot;margin: 0px; font-variant-numeric: normal; font-variant-east-asian: normal; font-variant-alternates: normal; font-size-adjust: none; font-kerning: auto; font-optical-sizing: auto; font-feature-settings: normal; font-variation-settings: normal; font-variant-position: normal; font-variant-emoji: normal; font-stretch: normal; line-height: normal;&quot;&gt;&lt;font style=&quot;font-size: 14px;&quot;&gt;associated with&lt;/font&gt;&lt;/p&gt;" style="text;html=1;align=center;verticalAlign=middle;whiteSpace=wrap;rounded=0;fontFamily=Roboto;rotation=0;" vertex="1" parent="0CqT6UI3sUiD8PZ4W5n_-34">
          <mxGeometry width="130" height="20" as="geometry" />
        </mxCell>
        <mxCell id="0CqT6UI3sUiD8PZ4W5n_-36" value="&lt;p class=&quot;p1&quot; style=&quot;margin: 0px; font-variant-numeric: normal; font-variant-east-asian: normal; font-variant-alternates: normal; font-size-adjust: none; font-kerning: auto; font-optical-sizing: auto; font-feature-settings: normal; font-variation-settings: normal; font-variant-position: normal; font-variant-emoji: normal; font-stretch: normal; line-height: normal;&quot;&gt;&lt;font&gt;→&lt;/font&gt;&lt;/p&gt;" style="text;html=1;align=center;verticalAlign=middle;whiteSpace=wrap;rounded=0;fontFamily=Roboto;rotation=-90;fontSize=16;" vertex="1" parent="0CqT6UI3sUiD8PZ4W5n_-34">
          <mxGeometry x="110" y="1" width="20" height="20" as="geometry" />
        </mxCell>
        <mxCell id="0CqT6UI3sUiD8PZ4W5n_-38" value="&lt;p style=&quot;margin: 0px; font-variant-numeric: normal; font-variant-east-asian: normal; font-variant-alternates: normal; font-size-adjust: none; font-kerning: auto; font-optical-sizing: auto; font-feature-settings: normal; font-variation-settings: normal; font-variant-position: normal; font-variant-emoji: normal; font-stretch: normal; line-height: normal;&quot; class=&quot;p1&quot;&gt;&lt;font style=&quot;font-size: 14px;&quot;&gt;#efficient&lt;/font&gt;&lt;/p&gt;" style="text;html=1;align=center;verticalAlign=middle;whiteSpace=wrap;rounded=0;fontFamily=Roboto;fontColor=#004C99;" vertex="1" parent="9wflpos8cuGk7jXia3fv-1">
          <mxGeometry x="625" y="670" width="55" height="20" as="geometry" />
        </mxCell>
      </root>
    </mxGraphModel>
  </diagram>
  <diagram name="Q42 Meta Model - centered" id="bCCqn5V5VFbxqNnXiY7Y">
    <mxGraphModel dx="2591" dy="823" grid="1" gridSize="10" guides="1" tooltips="1" connect="1" arrows="1" fold="1" page="1" pageScale="1" pageWidth="1169" pageHeight="827" math="0" shadow="0">
      <root>
        <mxCell id="E7Qkh1qQ3fL24t5s4WqB-0" />
        <mxCell id="E7Qkh1qQ3fL24t5s4WqB-1" parent="E7Qkh1qQ3fL24t5s4WqB-0" />
        <mxCell id="E7Qkh1qQ3fL24t5s4WqB-2" style="edgeStyle=orthogonalEdgeStyle;rounded=0;orthogonalLoop=1;jettySize=auto;html=1;entryX=0;entryY=0.5;entryDx=0;entryDy=0;endArrow=none;startFill=0;fontFamily=Roboto;shadow=1;" edge="1" parent="E7Qkh1qQ3fL24t5s4WqB-1" source="E7Qkh1qQ3fL24t5s4WqB-4" target="E7Qkh1qQ3fL24t5s4WqB-10">
          <mxGeometry relative="1" as="geometry" />
        </mxCell>
        <mxCell id="E7Qkh1qQ3fL24t5s4WqB-3" style="edgeStyle=orthogonalEdgeStyle;rounded=0;orthogonalLoop=1;jettySize=auto;html=1;endArrow=none;startFill=0;shadow=1;" edge="1" parent="E7Qkh1qQ3fL24t5s4WqB-1" source="E7Qkh1qQ3fL24t5s4WqB-4" target="E7Qkh1qQ3fL24t5s4WqB-8">
          <mxGeometry relative="1" as="geometry" />
        </mxCell>
        <mxCell id="E7Qkh1qQ3fL24t5s4WqB-4" value="&lt;font style=&quot;font-size: 14px;&quot;&gt;(top-level)&lt;/font&gt;&lt;div&gt;&lt;font style=&quot;font-size: 24px; color: rgb(204, 0, 102);&quot;&gt;&lt;b&gt;Property&lt;/b&gt;&lt;/font&gt;&lt;/div&gt;&lt;div&gt;&lt;font style=&quot;font-size: 14px;&quot;&gt;tag, label&lt;/font&gt;&lt;/div&gt;" style="rounded=0;whiteSpace=wrap;html=1;fillColor=light-dark(#dbf1fe, #ededed);fontFamily=Roboto;shadow=1;" vertex="1" parent="E7Qkh1qQ3fL24t5s4WqB-1">
          <mxGeometry x="560" y="120" width="160" height="80" as="geometry" />
        </mxCell>
        <mxCell id="E7Qkh1qQ3fL24t5s4WqB-5" style="rounded=0;orthogonalLoop=1;jettySize=auto;html=1;entryX=0;entryY=0.5;entryDx=0;entryDy=0;endArrow=none;startFill=0;fontFamily=Roboto;shadow=1;" edge="1" parent="E7Qkh1qQ3fL24t5s4WqB-1" source="E7Qkh1qQ3fL24t5s4WqB-8" target="E7Qkh1qQ3fL24t5s4WqB-14">
          <mxGeometry relative="1" as="geometry" />
        </mxCell>
        <mxCell id="E7Qkh1qQ3fL24t5s4WqB-6" style="edgeStyle=orthogonalEdgeStyle;rounded=0;orthogonalLoop=1;jettySize=auto;html=1;endArrow=none;startFill=0;fontFamily=Roboto;shadow=1;" edge="1" parent="E7Qkh1qQ3fL24t5s4WqB-1" source="E7Qkh1qQ3fL24t5s4WqB-8" target="E7Qkh1qQ3fL24t5s4WqB-16">
          <mxGeometry relative="1" as="geometry" />
        </mxCell>
        <mxCell id="E7Qkh1qQ3fL24t5s4WqB-7" style="rounded=0;orthogonalLoop=1;jettySize=auto;html=1;endArrow=none;startFill=0;fontFamily=Roboto;shadow=1;" edge="1" parent="E7Qkh1qQ3fL24t5s4WqB-1" source="E7Qkh1qQ3fL24t5s4WqB-8" target="E7Qkh1qQ3fL24t5s4WqB-15">
          <mxGeometry relative="1" as="geometry" />
        </mxCell>
        <mxCell id="E7Qkh1qQ3fL24t5s4WqB-8" value="&lt;div&gt;&lt;font style=&quot;font-size: 14px;&quot;&gt;(specific)&lt;/font&gt;&lt;/div&gt;&lt;font style=&quot;color: rgb(204, 0, 102); font-size: 28px;&quot;&gt;&lt;b style=&quot;&quot;&gt;Quality&lt;/b&gt;&lt;/font&gt;&lt;div&gt;&lt;font style=&quot;font-size: 17px;&quot;&gt;property&lt;/font&gt;&lt;/div&gt;" style="rounded=0;whiteSpace=wrap;html=1;fillColor=#DBF1FE;fontFamily=Roboto;shadow=1;" vertex="1" parent="E7Qkh1qQ3fL24t5s4WqB-1">
          <mxGeometry x="280" y="461" width="160" height="130" as="geometry" />
        </mxCell>
        <mxCell id="E7Qkh1qQ3fL24t5s4WqB-10" value="&lt;font style=&quot;font-size: 22px; color: rgb(204, 0, 102);&quot;&gt;&lt;b style=&quot;&quot;&gt;Stakeholder&lt;/b&gt;&lt;/font&gt;" style="rounded=0;whiteSpace=wrap;html=1;fontFamily=Roboto;fillColor=#fff2cc;strokeColor=#d6b656;shadow=1;" vertex="1" parent="E7Qkh1qQ3fL24t5s4WqB-1">
          <mxGeometry x="858" y="120" width="160" height="80" as="geometry" />
        </mxCell>
        <mxCell id="E7Qkh1qQ3fL24t5s4WqB-11" style="edgeStyle=orthogonalEdgeStyle;rounded=0;orthogonalLoop=1;jettySize=auto;html=1;endArrow=none;startFill=0;fontFamily=Roboto;shadow=1;" edge="1" parent="E7Qkh1qQ3fL24t5s4WqB-1" source="E7Qkh1qQ3fL24t5s4WqB-13" target="E7Qkh1qQ3fL24t5s4WqB-4">
          <mxGeometry relative="1" as="geometry" />
        </mxCell>
        <mxCell id="E7Qkh1qQ3fL24t5s4WqB-12" style="rounded=0;orthogonalLoop=1;jettySize=auto;html=1;endArrow=none;startFill=0;fontFamily=Roboto;shadow=1;" edge="1" parent="E7Qkh1qQ3fL24t5s4WqB-1" source="E7Qkh1qQ3fL24t5s4WqB-13" target="E7Qkh1qQ3fL24t5s4WqB-8">
          <mxGeometry relative="1" as="geometry" />
        </mxCell>
        <mxCell id="E7Qkh1qQ3fL24t5s4WqB-13" value="&lt;font style=&quot;color: rgb(204, 0, 102);&quot;&gt;System- or&lt;/font&gt;&lt;div&gt;&lt;font style=&quot;color: rgb(204, 0, 102);&quot;&gt;Product&lt;/font&gt;&lt;/div&gt;&lt;div&gt;&lt;font style=&quot;color: rgb(204, 0, 102); font-size: 28px;&quot;&gt;Quality&lt;/font&gt;&lt;/div&gt;" style="rounded=0;whiteSpace=wrap;html=1;fontFamily=Roboto;fillColor=#f5f5f5;fontColor=#333333;strokeColor=#666666;fontSize=21;fontStyle=1;shadow=1;" vertex="1" parent="E7Qkh1qQ3fL24t5s4WqB-1">
          <mxGeometry x="560" y="256" width="160" height="90" as="geometry" />
        </mxCell>
        <mxCell id="E7Qkh1qQ3fL24t5s4WqB-14" value="&lt;div&gt;&lt;b style=&quot;color: rgb(204, 0, 102); background-color: transparent;&quot;&gt;&lt;font style=&quot;font-size: 25px;&quot;&gt;Example&lt;/font&gt;&lt;/b&gt;&lt;/div&gt;&lt;div&gt;&lt;font color=&quot;#cc0066&quot;&gt;&lt;b style=&quot;&quot;&gt;&lt;font style=&quot;font-size: 25px;&quot;&gt;Requirement&lt;/font&gt;&lt;br&gt;&lt;/b&gt;&lt;/font&gt;&lt;div&gt;&lt;font style=&quot;font-size: 14px;&quot;&gt;with metric /&lt;/font&gt;&lt;/div&gt;&lt;/div&gt;&lt;div&gt;&lt;font style=&quot;font-size: 14px;&quot;&gt;acceptance criterion&lt;/font&gt;&lt;/div&gt;" style="rounded=0;whiteSpace=wrap;html=1;fillColor=light-dark(#ceffcd, #ededed);fontFamily=Roboto;shadow=1;" vertex="1" parent="E7Qkh1qQ3fL24t5s4WqB-1">
          <mxGeometry x="858" y="461" width="160" height="130" as="geometry" />
        </mxCell>
        <mxCell id="E7Qkh1qQ3fL24t5s4WqB-15" value="&lt;font style=&quot;font-size: 21px; color: rgb(204, 0, 102);&quot;&gt;&lt;b style=&quot;&quot;&gt;Standard&lt;/b&gt;&lt;/font&gt;&lt;span style=&quot;font-size: 14px; background-color: transparent; color: light-dark(rgb(0, 0, 0), rgb(255, 255, 255));&quot;&gt;&lt;br&gt;e.g. ISO-25010&lt;/span&gt;" style="rounded=0;whiteSpace=wrap;html=1;fontFamily=Roboto;fillColor=#d0cee2;strokeColor=#56517e;shadow=1;" vertex="1" parent="E7Qkh1qQ3fL24t5s4WqB-1">
          <mxGeometry x="560" y="410" width="160" height="80" as="geometry" />
        </mxCell>
        <mxCell id="E7Qkh1qQ3fL24t5s4WqB-16" value="&lt;font style=&quot;font-size: 24px; color: rgb(204, 0, 102);&quot;&gt;&lt;b&gt;Approach&lt;/b&gt;&lt;/font&gt;&lt;div&gt;&lt;font style=&quot;font-size: 14px;&quot;&gt;Pattern, Tactic,&lt;/font&gt;&lt;/div&gt;&lt;div&gt;&lt;font style=&quot;font-size: 14px;&quot;&gt;Strategy&lt;/font&gt;&lt;/div&gt;" style="rounded=0;whiteSpace=wrap;html=1;fontFamily=Roboto;fillColor=#f8cecc;strokeColor=#b85450;shadow=1;" vertex="1" parent="E7Qkh1qQ3fL24t5s4WqB-1">
          <mxGeometry x="-50" y="486" width="160" height="80" as="geometry" />
        </mxCell>
        <mxCell id="E7Qkh1qQ3fL24t5s4WqB-17" style="rounded=0;orthogonalLoop=1;jettySize=auto;html=1;endArrow=none;startFill=0;entryX=0.5;entryY=0;entryDx=0;entryDy=0;exitX=0.5;exitY=1;exitDx=0;exitDy=0;" edge="1" parent="E7Qkh1qQ3fL24t5s4WqB-1" source="E7Qkh1qQ3fL24t5s4WqB-10" target="E7Qkh1qQ3fL24t5s4WqB-14">
          <mxGeometry relative="1" as="geometry">
            <mxPoint x="883" y="210" as="sourcePoint" />
            <mxPoint x="729" y="345" as="targetPoint" />
          </mxGeometry>
        </mxCell>
        <mxCell id="E7Qkh1qQ3fL24t5s4WqB-18" value="&lt;p class=&quot;p1&quot; style=&quot;margin: 0px; font-variant-numeric: normal; font-variant-east-asian: normal; font-variant-alternates: normal; font-size-adjust: none; font-kerning: auto; font-optical-sizing: auto; font-feature-settings: normal; font-variation-settings: normal; font-variant-position: normal; font-variant-emoji: normal; font-stretch: normal; line-height: normal;&quot;&gt;&lt;font style=&quot;font-size: 14px;&quot;&gt;interesting for→&lt;/font&gt;&lt;/p&gt;" style="text;html=1;align=center;verticalAlign=middle;whiteSpace=wrap;rounded=0;fontFamily=Roboto;" vertex="1" parent="E7Qkh1qQ3fL24t5s4WqB-1">
          <mxGeometry x="727" y="130" width="130" height="30" as="geometry" />
        </mxCell>
        <mxCell id="E7Qkh1qQ3fL24t5s4WqB-19" value="&lt;p class=&quot;p1&quot; style=&quot;margin: 0px; font-variant-numeric: normal; font-variant-east-asian: normal; font-variant-alternates: normal; font-size-adjust: none; font-kerning: auto; font-optical-sizing: auto; font-feature-settings: normal; font-variation-settings: normal; font-variant-position: normal; font-variant-emoji: normal; font-stretch: normal; line-height: normal;&quot;&gt;&lt;font style=&quot;font-size: 14px;&quot;&gt;structured into →&lt;/font&gt;&lt;/p&gt;" style="text;html=1;align=center;verticalAlign=middle;whiteSpace=wrap;rounded=0;fontFamily=Roboto;" vertex="1" parent="E7Qkh1qQ3fL24t5s4WqB-1">
          <mxGeometry x="390" y="130" width="130" height="30" as="geometry" />
        </mxCell>
        <mxCell id="E7Qkh1qQ3fL24t5s4WqB-20" value="&lt;p class=&quot;p1&quot; style=&quot;margin: 0px; font-variant-numeric: normal; font-variant-east-asian: normal; font-variant-alternates: normal; font-size-adjust: none; font-kerning: auto; font-optical-sizing: auto; font-feature-settings: normal; font-variation-settings: normal; font-variant-position: normal; font-variant-emoji: normal; font-stretch: normal; line-height: normal;&quot;&gt;&lt;font style=&quot;font-size: 14px;&quot;&gt;describes →&lt;/font&gt;&lt;/p&gt;" style="text;html=1;align=center;verticalAlign=middle;whiteSpace=wrap;rounded=0;fontFamily=Roboto;rotation=321;" vertex="1" parent="E7Qkh1qQ3fL24t5s4WqB-1">
          <mxGeometry x="430" y="390" width="130" height="20" as="geometry" />
        </mxCell>
        <mxCell id="E7Qkh1qQ3fL24t5s4WqB-21" value="&lt;p class=&quot;p1&quot; style=&quot;margin: 0px; font-variant-numeric: normal; font-variant-east-asian: normal; font-variant-alternates: normal; font-size-adjust: none; font-kerning: auto; font-optical-sizing: auto; font-feature-settings: normal; font-variation-settings: normal; font-variant-position: normal; font-variant-emoji: normal; font-stretch: normal; line-height: normal;&quot;&gt;&lt;font style=&quot;font-size: 14px;&quot;&gt;specified by →&lt;/font&gt;&lt;/p&gt;" style="text;html=1;align=center;verticalAlign=middle;whiteSpace=wrap;rounded=0;fontFamily=Roboto;" vertex="1" parent="E7Qkh1qQ3fL24t5s4WqB-1">
          <mxGeometry x="575" y="524" width="130" height="30" as="geometry" />
        </mxCell>
        <mxCell id="E7Qkh1qQ3fL24t5s4WqB-22" value="&lt;p class=&quot;p1&quot; style=&quot;margin: 0px; font-variant-numeric: normal; font-variant-east-asian: normal; font-variant-alternates: normal; font-size-adjust: none; font-kerning: auto; font-optical-sizing: auto; font-feature-settings: normal; font-variation-settings: normal; font-variant-position: normal; font-variant-emoji: normal; font-stretch: normal; line-height: normal;&quot;&gt;&lt;font style=&quot;font-size: 14px;&quot;&gt;enables / improves →&lt;/font&gt;&lt;/p&gt;" style="text;html=1;align=center;verticalAlign=middle;whiteSpace=wrap;rounded=0;fontFamily=Roboto;" vertex="1" parent="E7Qkh1qQ3fL24t5s4WqB-1">
          <mxGeometry x="120" y="497" width="150" height="30" as="geometry" />
        </mxCell>
        <mxCell id="8TkiiC5X1mZdVFHcJJXl-0" style="rounded=0;orthogonalLoop=1;jettySize=auto;html=1;endArrow=none;startFill=0;fontFamily=Roboto;shadow=1;exitX=1;exitY=0.25;exitDx=0;exitDy=0;entryX=0.25;entryY=1;entryDx=0;entryDy=0;" edge="1" parent="E7Qkh1qQ3fL24t5s4WqB-1" source="E7Qkh1qQ3fL24t5s4WqB-15" target="E7Qkh1qQ3fL24t5s4WqB-10">
          <mxGeometry relative="1" as="geometry">
            <mxPoint x="650" y="276" as="sourcePoint" />
            <mxPoint x="650" y="210" as="targetPoint" />
          </mxGeometry>
        </mxCell>
        <mxCell id="8TkiiC5X1mZdVFHcJJXl-2" value="&lt;p class=&quot;p1&quot; style=&quot;margin: 0px; font-variant-numeric: normal; font-variant-east-asian: normal; font-variant-alternates: normal; font-size-adjust: none; font-kerning: auto; font-optical-sizing: auto; font-feature-settings: normal; font-variation-settings: normal; font-variant-position: normal; font-variant-emoji: normal; font-stretch: normal; line-height: normal;&quot;&gt;&lt;font style=&quot;font-size: 14px;&quot;&gt;compliance&lt;/font&gt;&lt;/p&gt;&lt;p class=&quot;p1&quot; style=&quot;margin: 0px; font-variant-numeric: normal; font-variant-east-asian: normal; font-variant-alternates: normal; font-size-adjust: none; font-kerning: auto; font-optical-sizing: auto; font-feature-settings: normal; font-variation-settings: normal; font-variant-position: normal; font-variant-emoji: normal; font-stretch: normal; line-height: normal;&quot;&gt;&lt;font style=&quot;font-size: 14px;&quot;&gt;required by&lt;/font&gt;&lt;span style=&quot;font-size: 14px; background-color: transparent; color: light-dark(rgb(0, 0, 0), rgb(255, 255, 255));&quot;&gt;&amp;nbsp;&lt;/span&gt;&lt;span style=&quot;font-size: 14px; background-color: transparent; color: light-dark(rgb(0, 0, 0), rgb(255, 255, 255));&quot;&gt;→&lt;/span&gt;&lt;/p&gt;" style="text;html=1;align=center;verticalAlign=middle;whiteSpace=wrap;rounded=0;fontFamily=Roboto;rotation=309;" vertex="1" parent="E7Qkh1qQ3fL24t5s4WqB-1">
          <mxGeometry x="710" y="300" width="130" height="30" as="geometry" />
        </mxCell>
        <mxCell id="8TkiiC5X1mZdVFHcJJXl-4" value="&lt;p class=&quot;p1&quot; style=&quot;margin: 0px; font-variant-numeric: normal; font-variant-east-asian: normal; font-variant-alternates: normal; font-size-adjust: none; font-kerning: auto; font-optical-sizing: auto; font-feature-settings: normal; font-variation-settings: normal; font-variant-position: normal; font-variant-emoji: normal; font-stretch: normal; line-height: normal;&quot;&gt;&lt;font style=&quot;font-size: 14px;&quot;&gt;&amp;nbsp;contained in&amp;nbsp;&lt;/font&gt;&lt;span style=&quot;font-size: 14px; background-color: transparent; color: light-dark(rgb(0, 0, 0), rgb(255, 255, 255));&quot;&gt;&amp;nbsp;&lt;/span&gt;&lt;span style=&quot;font-size: 14px; background-color: transparent; color: light-dark(rgb(0, 0, 0), rgb(255, 255, 255));&quot;&gt;→&lt;/span&gt;&lt;/p&gt;" style="text;html=1;align=center;verticalAlign=middle;whiteSpace=wrap;rounded=0;fontFamily=Roboto;rotation=345;" vertex="1" parent="E7Qkh1qQ3fL24t5s4WqB-1">
          <mxGeometry x="439.63" y="466.68" width="115" height="20" as="geometry" />
        </mxCell>
        <mxCell id="8TkiiC5X1mZdVFHcJJXl-5" value="&lt;p class=&quot;p1&quot; style=&quot;margin: 0px; font-variant-numeric: normal; font-variant-east-asian: normal; font-variant-alternates: normal; font-size-adjust: none; font-kerning: auto; font-optical-sizing: auto; font-feature-settings: normal; font-variation-settings: normal; font-variant-position: normal; font-variant-emoji: normal; font-stretch: normal; line-height: normal;&quot;&gt;&lt;font style=&quot;font-size: 14px;&quot;&gt;ensure understanding&amp;nbsp;&lt;/font&gt;&lt;span style=&quot;font-size: 14px; background-color: transparent; color: light-dark(rgb(0, 0, 0), rgb(255, 255, 255));&quot;&gt;→&lt;/span&gt;&lt;/p&gt;" style="text;html=1;align=center;verticalAlign=middle;whiteSpace=wrap;rounded=0;fontFamily=Roboto;rotation=-90;" vertex="1" parent="E7Qkh1qQ3fL24t5s4WqB-1">
          <mxGeometry x="890" y="330" width="130" height="30" as="geometry" />
        </mxCell>
      </root>
    </mxGraphModel>
  </diagram>
</mxfile>
